<mxfile host="app.diagrams.net" modified="2021-06-11T03:22:49.803Z" agent="5.0 (Macintosh; Intel Mac OS X 10_12_6) AppleWebKit/537.36 (KHTML, like Gecko) Chrome/91.0.4472.77 Safari/537.36" etag="j6Bg-bgPTdI5UB54tQQN" version="14.7.3" type="github">
  <diagram id="HJ1Hfq0uVcgzrJEgd6cx" name="第 1 页">
    <mxGraphModel dx="946" dy="563" grid="1" gridSize="10" guides="1" tooltips="1" connect="1" arrows="1" fold="1" page="1" pageScale="1" pageWidth="827" pageHeight="1169" math="0" shadow="0">
      <root>
        <mxCell id="0" />
        <mxCell id="1" parent="0" />
        <mxCell id="xjjVBxoUjtWX53dAkBdB-1" value="Pool" style="swimlane;html=1;childLayout=stackLayout;resizeParent=1;resizeParentMax=0;startSize=20;fillColor=#ffe6cc;strokeColor=#d79b00;" vertex="1" parent="1">
          <mxGeometry x="120" y="60" width="770" height="980" as="geometry" />
        </mxCell>
        <mxCell id="xjjVBxoUjtWX53dAkBdB-2" value="客户端" style="swimlane;html=1;startSize=20;fillColor=#d5e8d4;strokeColor=#82b366;" vertex="1" parent="xjjVBxoUjtWX53dAkBdB-1">
          <mxGeometry y="20" width="180" height="960" as="geometry" />
        </mxCell>
        <mxCell id="xjjVBxoUjtWX53dAkBdB-72" value="客户端登陆" style="rounded=1;whiteSpace=wrap;html=1;fillColor=#d5e8d4;strokeColor=#82b366;" vertex="1" parent="xjjVBxoUjtWX53dAkBdB-2">
          <mxGeometry x="15" y="40" width="90" height="50" as="geometry" />
        </mxCell>
        <mxCell id="xjjVBxoUjtWX53dAkBdB-97" style="edgeStyle=orthogonalEdgeStyle;rounded=0;orthogonalLoop=1;jettySize=auto;html=1;" edge="1" parent="xjjVBxoUjtWX53dAkBdB-2" source="xjjVBxoUjtWX53dAkBdB-88" target="xjjVBxoUjtWX53dAkBdB-96">
          <mxGeometry relative="1" as="geometry" />
        </mxCell>
        <mxCell id="xjjVBxoUjtWX53dAkBdB-88" value="客户端接收消息" style="rounded=1;whiteSpace=wrap;html=1;" vertex="1" parent="xjjVBxoUjtWX53dAkBdB-2">
          <mxGeometry x="15" y="120" width="90" height="50" as="geometry" />
        </mxCell>
        <mxCell id="xjjVBxoUjtWX53dAkBdB-96" value="客户端ACK消息" style="rounded=1;whiteSpace=wrap;html=1;fillColor=#dae8fc;strokeColor=#6c8ebf;" vertex="1" parent="xjjVBxoUjtWX53dAkBdB-2">
          <mxGeometry x="15" y="200" width="90" height="50" as="geometry" />
        </mxCell>
        <mxCell id="xjjVBxoUjtWX53dAkBdB-103" value="客户端接收消息" style="rounded=1;whiteSpace=wrap;html=1;" vertex="1" parent="xjjVBxoUjtWX53dAkBdB-2">
          <mxGeometry x="30" y="400" width="90" height="50" as="geometry" />
        </mxCell>
        <mxCell id="xjjVBxoUjtWX53dAkBdB-104" value="客户端ACK消息" style="rounded=1;whiteSpace=wrap;html=1;fillColor=#dae8fc;strokeColor=#6c8ebf;" vertex="1" parent="xjjVBxoUjtWX53dAkBdB-2">
          <mxGeometry x="30" y="505" width="90" height="50" as="geometry" />
        </mxCell>
        <mxCell id="xjjVBxoUjtWX53dAkBdB-102" style="edgeStyle=orthogonalEdgeStyle;rounded=0;orthogonalLoop=1;jettySize=auto;html=1;" edge="1" parent="xjjVBxoUjtWX53dAkBdB-2" source="xjjVBxoUjtWX53dAkBdB-103" target="xjjVBxoUjtWX53dAkBdB-104">
          <mxGeometry relative="1" as="geometry" />
        </mxCell>
        <mxCell id="xjjVBxoUjtWX53dAkBdB-3" value="Socket网关" style="swimlane;html=1;startSize=20;fillColor=#e1d5e7;strokeColor=#9673a6;" vertex="1" parent="xjjVBxoUjtWX53dAkBdB-1">
          <mxGeometry x="180" y="20" width="225" height="960" as="geometry" />
        </mxCell>
        <mxCell id="xjjVBxoUjtWX53dAkBdB-74" value="缓存客户端信息" style="rounded=1;whiteSpace=wrap;html=1;fillColor=#d5e8d4;strokeColor=#82b366;" vertex="1" parent="xjjVBxoUjtWX53dAkBdB-3">
          <mxGeometry x="55" y="40" width="90" height="50" as="geometry" />
        </mxCell>
        <mxCell id="xjjVBxoUjtWX53dAkBdB-83" value="根据deviceId推送" style="rounded=1;whiteSpace=wrap;html=1;fillColor=#eeeeee;strokeColor=#36393d;" vertex="1" parent="xjjVBxoUjtWX53dAkBdB-3">
          <mxGeometry x="50" y="120" width="90" height="50" as="geometry" />
        </mxCell>
        <mxCell id="xjjVBxoUjtWX53dAkBdB-93" value="根据标签广播推送" style="rounded=1;whiteSpace=wrap;html=1;fillColor=#eeeeee;strokeColor=#36393d;" vertex="1" parent="xjjVBxoUjtWX53dAkBdB-3">
          <mxGeometry x="55" y="400" width="90" height="50" as="geometry" />
        </mxCell>
        <mxCell id="xjjVBxoUjtWX53dAkBdB-98" value="透传" style="rounded=1;whiteSpace=wrap;html=1;" vertex="1" parent="xjjVBxoUjtWX53dAkBdB-3">
          <mxGeometry x="55" y="200" width="90" height="50" as="geometry" />
        </mxCell>
        <mxCell id="xjjVBxoUjtWX53dAkBdB-106" value="透传" style="rounded=1;whiteSpace=wrap;html=1;" vertex="1" parent="xjjVBxoUjtWX53dAkBdB-3">
          <mxGeometry x="55" y="505" width="90" height="50" as="geometry" />
        </mxCell>
        <mxCell id="xjjVBxoUjtWX53dAkBdB-130" value="设备B在线?" style="rhombus;whiteSpace=wrap;html=1;fillColor=#eeeeee;strokeColor=#36393d;" vertex="1" parent="xjjVBxoUjtWX53dAkBdB-3">
          <mxGeometry x="55" y="600" width="90" height="60" as="geometry" />
        </mxCell>
        <mxCell id="xjjVBxoUjtWX53dAkBdB-4" value="POS消息业务端" style="swimlane;html=1;startSize=20;fillColor=#dae8fc;strokeColor=#6c8ebf;" vertex="1" parent="xjjVBxoUjtWX53dAkBdB-1">
          <mxGeometry x="405" y="20" width="365" height="960" as="geometry">
            <mxRectangle x="240" y="20" width="30" height="460" as="alternateBounds" />
          </mxGeometry>
        </mxCell>
        <mxCell id="xjjVBxoUjtWX53dAkBdB-75" value="处理客户端登陆请求" style="rounded=1;whiteSpace=wrap;html=1;fillColor=#d5e8d4;strokeColor=#82b366;" vertex="1" parent="xjjVBxoUjtWX53dAkBdB-4">
          <mxGeometry x="37.5" y="40" width="90" height="50" as="geometry" />
        </mxCell>
        <mxCell id="xjjVBxoUjtWX53dAkBdB-79" value="存在补发数据" style="rhombus;whiteSpace=wrap;html=1;fillColor=#f8cecc;strokeColor=#b85450;" vertex="1" parent="xjjVBxoUjtWX53dAkBdB-4">
          <mxGeometry x="37.5" y="120" width="90" height="50" as="geometry" />
        </mxCell>
        <mxCell id="xjjVBxoUjtWX53dAkBdB-80" value="" style="endArrow=classic;html=1;exitX=0.5;exitY=1;exitDx=0;exitDy=0;entryX=0.5;entryY=0;entryDx=0;entryDy=0;" edge="1" parent="xjjVBxoUjtWX53dAkBdB-4" source="xjjVBxoUjtWX53dAkBdB-75" target="xjjVBxoUjtWX53dAkBdB-79">
          <mxGeometry width="50" height="50" relative="1" as="geometry">
            <mxPoint x="2.5" y="200" as="sourcePoint" />
            <mxPoint x="52.5" y="150" as="targetPoint" />
          </mxGeometry>
        </mxCell>
        <mxCell id="xjjVBxoUjtWX53dAkBdB-120" style="edgeStyle=orthogonalEdgeStyle;rounded=0;orthogonalLoop=1;jettySize=auto;html=1;" edge="1" parent="xjjVBxoUjtWX53dAkBdB-4" source="xjjVBxoUjtWX53dAkBdB-92" target="xjjVBxoUjtWX53dAkBdB-119">
          <mxGeometry relative="1" as="geometry" />
        </mxCell>
        <mxCell id="xjjVBxoUjtWX53dAkBdB-92" value="批量推送" style="rounded=1;whiteSpace=wrap;html=1;" vertex="1" parent="xjjVBxoUjtWX53dAkBdB-4">
          <mxGeometry x="35" y="300" width="90" height="50" as="geometry" />
        </mxCell>
        <mxCell id="xjjVBxoUjtWX53dAkBdB-100" value="确认设备已消费seqId=1的消息" style="rounded=1;whiteSpace=wrap;html=1;fillColor=#dae8fc;strokeColor=#6c8ebf;" vertex="1" parent="xjjVBxoUjtWX53dAkBdB-4">
          <mxGeometry x="37.5" y="200" width="90" height="50" as="geometry" />
        </mxCell>
        <mxCell id="xjjVBxoUjtWX53dAkBdB-108" value="确认设备A已消费seqId=2的消息" style="rounded=1;whiteSpace=wrap;html=1;fillColor=#dae8fc;strokeColor=#6c8ebf;" vertex="1" parent="xjjVBxoUjtWX53dAkBdB-4">
          <mxGeometry x="37.5" y="505" width="90" height="50" as="geometry" />
        </mxCell>
        <mxCell id="xjjVBxoUjtWX53dAkBdB-126" style="edgeStyle=orthogonalEdgeStyle;rounded=0;orthogonalLoop=1;jettySize=auto;html=1;entryX=0.5;entryY=0;entryDx=0;entryDy=0;dashed=1;" edge="1" parent="xjjVBxoUjtWX53dAkBdB-4" source="xjjVBxoUjtWX53dAkBdB-119" target="xjjVBxoUjtWX53dAkBdB-125">
          <mxGeometry relative="1" as="geometry" />
        </mxCell>
        <mxCell id="xjjVBxoUjtWX53dAkBdB-127" value="异步延迟检测消息是否消费" style="edgeLabel;html=1;align=center;verticalAlign=middle;resizable=0;points=[];" vertex="1" connectable="0" parent="xjjVBxoUjtWX53dAkBdB-126">
          <mxGeometry x="-0.2909" relative="1" as="geometry">
            <mxPoint x="67" y="25" as="offset" />
          </mxGeometry>
        </mxCell>
        <mxCell id="xjjVBxoUjtWX53dAkBdB-119" value="保存所有待推送的设备seqId=2的消息未消费" style="rounded=1;whiteSpace=wrap;html=1;" vertex="1" parent="xjjVBxoUjtWX53dAkBdB-4">
          <mxGeometry x="35" y="400" width="90" height="50" as="geometry" />
        </mxCell>
        <mxCell id="xjjVBxoUjtWX53dAkBdB-129" style="edgeStyle=orthogonalEdgeStyle;rounded=0;orthogonalLoop=1;jettySize=auto;html=1;entryX=0.5;entryY=0;entryDx=0;entryDy=0;" edge="1" parent="xjjVBxoUjtWX53dAkBdB-4" source="xjjVBxoUjtWX53dAkBdB-125" target="xjjVBxoUjtWX53dAkBdB-128">
          <mxGeometry relative="1" as="geometry" />
        </mxCell>
        <mxCell id="xjjVBxoUjtWX53dAkBdB-125" value="seqId=2消息消费进度检测" style="rounded=1;whiteSpace=wrap;html=1;" vertex="1" parent="xjjVBxoUjtWX53dAkBdB-4">
          <mxGeometry x="225" y="500" width="90" height="50" as="geometry" />
        </mxCell>
        <mxCell id="xjjVBxoUjtWX53dAkBdB-128" value="设备B,seqId=2消息超时" style="rhombus;whiteSpace=wrap;html=1;fillColor=#f8cecc;strokeColor=#b85450;" vertex="1" parent="xjjVBxoUjtWX53dAkBdB-4">
          <mxGeometry x="225" y="600" width="90" height="60" as="geometry" />
        </mxCell>
        <mxCell id="xjjVBxoUjtWX53dAkBdB-134" value="设备B不补推消息，等待设备B上线补推" style="rounded=1;whiteSpace=wrap;html=1;fillColor=#f8cecc;strokeColor=#b85450;" vertex="1" parent="xjjVBxoUjtWX53dAkBdB-4">
          <mxGeometry x="35" y="670" width="90" height="50" as="geometry" />
        </mxCell>
        <mxCell id="xjjVBxoUjtWX53dAkBdB-76" style="edgeStyle=orthogonalEdgeStyle;rounded=0;orthogonalLoop=1;jettySize=auto;html=1;exitX=1;exitY=0.5;exitDx=0;exitDy=0;entryX=0;entryY=0.5;entryDx=0;entryDy=0;" edge="1" parent="xjjVBxoUjtWX53dAkBdB-1" source="xjjVBxoUjtWX53dAkBdB-72" target="xjjVBxoUjtWX53dAkBdB-74">
          <mxGeometry relative="1" as="geometry" />
        </mxCell>
        <mxCell id="xjjVBxoUjtWX53dAkBdB-77" style="edgeStyle=orthogonalEdgeStyle;rounded=0;orthogonalLoop=1;jettySize=auto;html=1;exitX=1;exitY=0.5;exitDx=0;exitDy=0;entryX=0;entryY=0.5;entryDx=0;entryDy=0;" edge="1" parent="xjjVBxoUjtWX53dAkBdB-1" source="xjjVBxoUjtWX53dAkBdB-74" target="xjjVBxoUjtWX53dAkBdB-75">
          <mxGeometry relative="1" as="geometry" />
        </mxCell>
        <mxCell id="xjjVBxoUjtWX53dAkBdB-84" value="" style="endArrow=classic;html=1;exitX=0;exitY=0.5;exitDx=0;exitDy=0;entryX=1;entryY=0.5;entryDx=0;entryDy=0;" edge="1" parent="xjjVBxoUjtWX53dAkBdB-1" source="xjjVBxoUjtWX53dAkBdB-79" target="xjjVBxoUjtWX53dAkBdB-83">
          <mxGeometry width="50" height="50" relative="1" as="geometry">
            <mxPoint x="-60" y="270" as="sourcePoint" />
            <mxPoint x="-10" y="220" as="targetPoint" />
          </mxGeometry>
        </mxCell>
        <mxCell id="xjjVBxoUjtWX53dAkBdB-85" value="Y,消息seqId=1" style="edgeLabel;html=1;align=center;verticalAlign=middle;resizable=0;points=[];" vertex="1" connectable="0" parent="xjjVBxoUjtWX53dAkBdB-84">
          <mxGeometry x="-0.1429" y="-4" relative="1" as="geometry">
            <mxPoint as="offset" />
          </mxGeometry>
        </mxCell>
        <mxCell id="xjjVBxoUjtWX53dAkBdB-89" value="" style="endArrow=classic;html=1;exitX=0;exitY=0.5;exitDx=0;exitDy=0;entryX=1;entryY=0.5;entryDx=0;entryDy=0;" edge="1" parent="xjjVBxoUjtWX53dAkBdB-1" source="xjjVBxoUjtWX53dAkBdB-83" target="xjjVBxoUjtWX53dAkBdB-88">
          <mxGeometry width="50" height="50" relative="1" as="geometry">
            <mxPoint x="-80" y="250" as="sourcePoint" />
            <mxPoint x="-30" y="200" as="targetPoint" />
          </mxGeometry>
        </mxCell>
        <mxCell id="xjjVBxoUjtWX53dAkBdB-116" value="消息seqId=1" style="edgeLabel;html=1;align=center;verticalAlign=middle;resizable=0;points=[];" vertex="1" connectable="0" parent="xjjVBxoUjtWX53dAkBdB-89">
          <mxGeometry x="0.1059" y="-1" relative="1" as="geometry">
            <mxPoint as="offset" />
          </mxGeometry>
        </mxCell>
        <mxCell id="xjjVBxoUjtWX53dAkBdB-99" value="" style="endArrow=classic;html=1;entryX=0;entryY=0.5;entryDx=0;entryDy=0;exitX=1;exitY=0.5;exitDx=0;exitDy=0;" edge="1" parent="xjjVBxoUjtWX53dAkBdB-1" source="xjjVBxoUjtWX53dAkBdB-96" target="xjjVBxoUjtWX53dAkBdB-98">
          <mxGeometry width="50" height="50" relative="1" as="geometry">
            <mxPoint x="-90" y="340" as="sourcePoint" />
            <mxPoint x="-40" y="290" as="targetPoint" />
          </mxGeometry>
        </mxCell>
        <mxCell id="xjjVBxoUjtWX53dAkBdB-117" value="ACK消息seqId=1" style="edgeLabel;html=1;align=center;verticalAlign=middle;resizable=0;points=[];" vertex="1" connectable="0" parent="xjjVBxoUjtWX53dAkBdB-99">
          <mxGeometry x="-0.3778" y="4" relative="1" as="geometry">
            <mxPoint x="25" as="offset" />
          </mxGeometry>
        </mxCell>
        <mxCell id="xjjVBxoUjtWX53dAkBdB-101" value="" style="endArrow=classic;html=1;entryX=0;entryY=0.5;entryDx=0;entryDy=0;exitX=1;exitY=0.5;exitDx=0;exitDy=0;" edge="1" parent="xjjVBxoUjtWX53dAkBdB-1" source="xjjVBxoUjtWX53dAkBdB-98" target="xjjVBxoUjtWX53dAkBdB-100">
          <mxGeometry width="50" height="50" relative="1" as="geometry">
            <mxPoint x="-80" y="330" as="sourcePoint" />
            <mxPoint x="-30" y="280" as="targetPoint" />
          </mxGeometry>
        </mxCell>
        <mxCell id="xjjVBxoUjtWX53dAkBdB-113" value="" style="endArrow=classic;html=1;entryX=0;entryY=0.5;entryDx=0;entryDy=0;exitX=1;exitY=0.5;exitDx=0;exitDy=0;" edge="1" parent="xjjVBxoUjtWX53dAkBdB-1" source="xjjVBxoUjtWX53dAkBdB-106" target="xjjVBxoUjtWX53dAkBdB-108">
          <mxGeometry width="50" height="50" relative="1" as="geometry">
            <mxPoint x="-200" y="540" as="sourcePoint" />
            <mxPoint x="-150" y="490" as="targetPoint" />
          </mxGeometry>
        </mxCell>
        <mxCell id="xjjVBxoUjtWX53dAkBdB-115" value="" style="endArrow=classic;html=1;entryX=0;entryY=0.5;entryDx=0;entryDy=0;exitX=1;exitY=0.5;exitDx=0;exitDy=0;" edge="1" parent="xjjVBxoUjtWX53dAkBdB-1" source="xjjVBxoUjtWX53dAkBdB-104" target="xjjVBxoUjtWX53dAkBdB-106">
          <mxGeometry width="50" height="50" relative="1" as="geometry">
            <mxPoint x="-60" y="610" as="sourcePoint" />
            <mxPoint x="-10" y="560" as="targetPoint" />
          </mxGeometry>
        </mxCell>
        <mxCell id="xjjVBxoUjtWX53dAkBdB-124" value="ACK消息seqId=2" style="edgeLabel;html=1;align=center;verticalAlign=middle;resizable=0;points=[];" vertex="1" connectable="0" parent="xjjVBxoUjtWX53dAkBdB-115">
          <mxGeometry x="-0.3739" y="4" relative="1" as="geometry">
            <mxPoint x="14" y="4" as="offset" />
          </mxGeometry>
        </mxCell>
        <mxCell id="xjjVBxoUjtWX53dAkBdB-121" style="edgeStyle=orthogonalEdgeStyle;rounded=0;orthogonalLoop=1;jettySize=auto;html=1;entryX=1;entryY=0.5;entryDx=0;entryDy=0;" edge="1" parent="xjjVBxoUjtWX53dAkBdB-1" source="xjjVBxoUjtWX53dAkBdB-119" target="xjjVBxoUjtWX53dAkBdB-93">
          <mxGeometry relative="1" as="geometry" />
        </mxCell>
        <mxCell id="xjjVBxoUjtWX53dAkBdB-123" value="消息seqId=2" style="edgeLabel;html=1;align=center;verticalAlign=middle;resizable=0;points=[];" vertex="1" connectable="0" parent="xjjVBxoUjtWX53dAkBdB-121">
          <mxGeometry x="0.1652" y="-3" relative="1" as="geometry">
            <mxPoint x="7" y="3" as="offset" />
          </mxGeometry>
        </mxCell>
        <mxCell id="xjjVBxoUjtWX53dAkBdB-122" style="edgeStyle=orthogonalEdgeStyle;rounded=0;orthogonalLoop=1;jettySize=auto;html=1;entryX=1;entryY=0.5;entryDx=0;entryDy=0;" edge="1" parent="xjjVBxoUjtWX53dAkBdB-1" source="xjjVBxoUjtWX53dAkBdB-93" target="xjjVBxoUjtWX53dAkBdB-103">
          <mxGeometry relative="1" as="geometry" />
        </mxCell>
        <mxCell id="xjjVBxoUjtWX53dAkBdB-131" style="edgeStyle=orthogonalEdgeStyle;rounded=0;orthogonalLoop=1;jettySize=auto;html=1;entryX=1;entryY=0.5;entryDx=0;entryDy=0;" edge="1" parent="xjjVBxoUjtWX53dAkBdB-1" source="xjjVBxoUjtWX53dAkBdB-128" target="xjjVBxoUjtWX53dAkBdB-130">
          <mxGeometry relative="1" as="geometry" />
        </mxCell>
        <mxCell id="xjjVBxoUjtWX53dAkBdB-138" value="设备B超时" style="edgeLabel;html=1;align=center;verticalAlign=middle;resizable=0;points=[];" vertex="1" connectable="0" parent="xjjVBxoUjtWX53dAkBdB-131">
          <mxGeometry x="-0.0426" relative="1" as="geometry">
            <mxPoint as="offset" />
          </mxGeometry>
        </mxCell>
        <mxCell id="xjjVBxoUjtWX53dAkBdB-135" value="不在线" style="edgeStyle=orthogonalEdgeStyle;rounded=0;orthogonalLoop=1;jettySize=auto;html=1;entryX=0;entryY=0.5;entryDx=0;entryDy=0;exitX=0.5;exitY=1;exitDx=0;exitDy=0;" edge="1" parent="xjjVBxoUjtWX53dAkBdB-1" source="xjjVBxoUjtWX53dAkBdB-130" target="xjjVBxoUjtWX53dAkBdB-134">
          <mxGeometry relative="1" as="geometry" />
        </mxCell>
        <mxCell id="xjjVBxoUjtWX53dAkBdB-136" value="" style="curved=1;endArrow=classic;html=1;exitX=0.5;exitY=0;exitDx=0;exitDy=0;entryX=1;entryY=0.5;entryDx=0;entryDy=0;" edge="1" parent="xjjVBxoUjtWX53dAkBdB-1" source="xjjVBxoUjtWX53dAkBdB-130" target="xjjVBxoUjtWX53dAkBdB-79">
          <mxGeometry width="50" height="50" relative="1" as="geometry">
            <mxPoint x="430" y="520" as="sourcePoint" />
            <mxPoint x="650" y="260" as="targetPoint" />
            <Array as="points">
              <mxPoint x="490" y="620" />
              <mxPoint x="580" y="550" />
              <mxPoint x="680" y="410" />
              <mxPoint x="780" y="220" />
            </Array>
          </mxGeometry>
        </mxCell>
        <mxCell id="xjjVBxoUjtWX53dAkBdB-137" value="不在线，补发seqId=2的消息" style="edgeLabel;html=1;align=center;verticalAlign=middle;resizable=0;points=[];" vertex="1" connectable="0" parent="xjjVBxoUjtWX53dAkBdB-136">
          <mxGeometry x="-0.6993" y="6" relative="1" as="geometry">
            <mxPoint as="offset" />
          </mxGeometry>
        </mxCell>
        <mxCell id="xjjVBxoUjtWX53dAkBdB-8" value="" style="swimlane;startSize=0;" vertex="1" parent="1">
          <mxGeometry x="840" y="1190" width="890" height="570" as="geometry" />
        </mxCell>
        <mxCell id="xjjVBxoUjtWX53dAkBdB-9" value="" style="swimlane;startSize=0;" vertex="1" parent="xjjVBxoUjtWX53dAkBdB-8">
          <mxGeometry x="50" y="30" width="800" height="120" as="geometry">
            <mxRectangle x="50" y="30" width="50" height="40" as="alternateBounds" />
          </mxGeometry>
        </mxCell>
        <mxCell id="xjjVBxoUjtWX53dAkBdB-10" value="&lt;font style=&quot;font-size: 24px&quot;&gt;客&lt;br&gt;户&lt;br&gt;端&lt;/font&gt;" style="text;html=1;align=center;verticalAlign=middle;resizable=0;points=[];autosize=1;strokeColor=none;rotation=0;" vertex="1" parent="xjjVBxoUjtWX53dAkBdB-9">
          <mxGeometry x="5" y="30" width="40" height="60" as="geometry" />
        </mxCell>
        <mxCell id="xjjVBxoUjtWX53dAkBdB-5" value="" style="image;html=1;image=img/lib/clip_art/telecommunication/iPhone_128x128.png" vertex="1" parent="xjjVBxoUjtWX53dAkBdB-9">
          <mxGeometry x="60" y="20" width="80" height="80" as="geometry" />
        </mxCell>
        <mxCell id="xjjVBxoUjtWX53dAkBdB-11" value="" style="image;html=1;image=img/lib/clip_art/telecommunication/iPhone_128x128.png" vertex="1" parent="xjjVBxoUjtWX53dAkBdB-9">
          <mxGeometry x="170" y="20" width="80" height="80" as="geometry" />
        </mxCell>
        <mxCell id="xjjVBxoUjtWX53dAkBdB-12" value="" style="image;html=1;image=img/lib/clip_art/computers/Workstation_128x128.png" vertex="1" parent="xjjVBxoUjtWX53dAkBdB-9">
          <mxGeometry x="300" y="20" width="80" height="80" as="geometry" />
        </mxCell>
        <mxCell id="xjjVBxoUjtWX53dAkBdB-13" value="" style="image;html=1;image=img/lib/clip_art/computers/Workstation_128x128.png" vertex="1" parent="xjjVBxoUjtWX53dAkBdB-9">
          <mxGeometry x="440" y="20" width="80" height="80" as="geometry" />
        </mxCell>
        <mxCell id="xjjVBxoUjtWX53dAkBdB-18" value="" style="image;html=1;image=img/lib/clip_art/computers/iPad_128x128.png" vertex="1" parent="xjjVBxoUjtWX53dAkBdB-9">
          <mxGeometry x="550" y="20" width="80" height="80" as="geometry" />
        </mxCell>
        <mxCell id="xjjVBxoUjtWX53dAkBdB-19" value="" style="image;html=1;image=img/lib/clip_art/computers/iPad_128x128.png" vertex="1" parent="xjjVBxoUjtWX53dAkBdB-9">
          <mxGeometry x="670" y="20" width="80" height="80" as="geometry" />
        </mxCell>
        <mxCell id="xjjVBxoUjtWX53dAkBdB-16" value="" style="swimlane;startSize=0;" vertex="1" parent="xjjVBxoUjtWX53dAkBdB-8">
          <mxGeometry x="50" y="200" width="800" height="140" as="geometry" />
        </mxCell>
        <mxCell id="xjjVBxoUjtWX53dAkBdB-17" value="&lt;span style=&quot;font-size: 24px&quot;&gt;网&lt;br&gt;关&lt;br&gt;层&lt;br&gt;&lt;/span&gt;" style="text;html=1;align=center;verticalAlign=middle;resizable=0;points=[];autosize=1;strokeColor=none;rotation=0;" vertex="1" parent="xjjVBxoUjtWX53dAkBdB-16">
          <mxGeometry x="15" y="40" width="40" height="60" as="geometry" />
        </mxCell>
        <mxCell id="xjjVBxoUjtWX53dAkBdB-51" value="" style="swimlane;startSize=0;" vertex="1" parent="xjjVBxoUjtWX53dAkBdB-16">
          <mxGeometry x="250" y="20" width="130" height="50" as="geometry" />
        </mxCell>
        <mxCell id="xjjVBxoUjtWX53dAkBdB-52" value="&lt;font style=&quot;font-size: 16px&quot;&gt;协议解析&lt;/font&gt;" style="text;html=1;align=center;verticalAlign=middle;resizable=0;points=[];autosize=1;strokeColor=none;" vertex="1" parent="xjjVBxoUjtWX53dAkBdB-51">
          <mxGeometry x="20" y="15" width="80" height="20" as="geometry" />
        </mxCell>
        <mxCell id="xjjVBxoUjtWX53dAkBdB-54" value="" style="swimlane;startSize=0;" vertex="1" parent="xjjVBxoUjtWX53dAkBdB-16">
          <mxGeometry x="440" y="20" width="130" height="50" as="geometry" />
        </mxCell>
        <mxCell id="xjjVBxoUjtWX53dAkBdB-55" value="&lt;font style=&quot;font-size: 16px&quot;&gt;消息推送&lt;/font&gt;" style="text;html=1;align=center;verticalAlign=middle;resizable=0;points=[];autosize=1;strokeColor=none;" vertex="1" parent="xjjVBxoUjtWX53dAkBdB-54">
          <mxGeometry x="20" y="15" width="80" height="20" as="geometry" />
        </mxCell>
        <mxCell id="xjjVBxoUjtWX53dAkBdB-35" value="" style="swimlane;startSize=0;" vertex="1" parent="xjjVBxoUjtWX53dAkBdB-8">
          <mxGeometry x="50" y="360" width="800" height="190" as="geometry" />
        </mxCell>
        <mxCell id="xjjVBxoUjtWX53dAkBdB-36" value="&lt;span style=&quot;font-size: 24px&quot;&gt;应&lt;br&gt;用&lt;br&gt;处&lt;br&gt;理&lt;br&gt;层&lt;/span&gt;" style="text;html=1;align=center;verticalAlign=middle;resizable=0;points=[];autosize=1;strokeColor=none;rotation=0;" vertex="1" parent="xjjVBxoUjtWX53dAkBdB-35">
          <mxGeometry x="20" y="30" width="40" height="100" as="geometry" />
        </mxCell>
        <mxCell id="xjjVBxoUjtWX53dAkBdB-39" value="&lt;span style=&quot;font-size: 16px&quot;&gt;P&lt;br&gt;O&lt;br&gt;S&lt;/span&gt;" style="text;html=1;align=center;verticalAlign=middle;resizable=0;points=[];autosize=1;strokeColor=none;rotation=0;" vertex="1" parent="xjjVBxoUjtWX53dAkBdB-35">
          <mxGeometry x="110" y="70" width="30" height="50" as="geometry" />
        </mxCell>
        <mxCell id="xjjVBxoUjtWX53dAkBdB-43" value="" style="swimlane;startSize=0;" vertex="1" parent="xjjVBxoUjtWX53dAkBdB-35">
          <mxGeometry x="530" y="20" width="250" height="140" as="geometry" />
        </mxCell>
        <mxCell id="xjjVBxoUjtWX53dAkBdB-45" value="&lt;span style=&quot;font-size: 16px&quot;&gt;餐&lt;br&gt;饮&lt;/span&gt;" style="text;html=1;align=center;verticalAlign=middle;resizable=0;points=[];autosize=1;strokeColor=none;rotation=0;" vertex="1" parent="xjjVBxoUjtWX53dAkBdB-43">
          <mxGeometry x="20" y="50" width="30" height="40" as="geometry" />
        </mxCell>
        <mxCell id="xjjVBxoUjtWX53dAkBdB-62" value="" style="swimlane;startSize=0;" vertex="1" parent="xjjVBxoUjtWX53dAkBdB-43">
          <mxGeometry x="50" y="50" width="170" height="40" as="geometry" />
        </mxCell>
        <mxCell id="xjjVBxoUjtWX53dAkBdB-63" value="&lt;font style=&quot;font-size: 14px&quot;&gt;客户端消息接收/推送&lt;/font&gt;" style="text;html=1;align=center;verticalAlign=middle;resizable=0;points=[];autosize=1;strokeColor=none;" vertex="1" parent="xjjVBxoUjtWX53dAkBdB-62">
          <mxGeometry x="5" y="10" width="150" height="20" as="geometry" />
        </mxCell>
        <mxCell id="xjjVBxoUjtWX53dAkBdB-38" value="" style="swimlane;startSize=0;" vertex="1" parent="1">
          <mxGeometry x="980" y="1580" width="250" height="140" as="geometry" />
        </mxCell>
        <mxCell id="xjjVBxoUjtWX53dAkBdB-48" value="" style="swimlane;startSize=0;" vertex="1" parent="1">
          <mxGeometry x="960" y="1410" width="130" height="50" as="geometry" />
        </mxCell>
        <mxCell id="xjjVBxoUjtWX53dAkBdB-50" value="&lt;font style=&quot;font-size: 16px&quot;&gt;连接保持&lt;/font&gt;" style="text;html=1;align=center;verticalAlign=middle;resizable=0;points=[];autosize=1;strokeColor=none;" vertex="1" parent="xjjVBxoUjtWX53dAkBdB-48">
          <mxGeometry x="20" y="15" width="80" height="20" as="geometry" />
        </mxCell>
        <mxCell id="xjjVBxoUjtWX53dAkBdB-56" value="" style="swimlane;startSize=0;" vertex="1" parent="1">
          <mxGeometry x="1520" y="1410" width="130" height="50" as="geometry" />
        </mxCell>
        <mxCell id="xjjVBxoUjtWX53dAkBdB-57" value="&lt;font style=&quot;font-size: 16px&quot;&gt;网关负载优化&lt;/font&gt;" style="text;html=1;align=center;verticalAlign=middle;resizable=0;points=[];autosize=1;strokeColor=none;" vertex="1" parent="xjjVBxoUjtWX53dAkBdB-56">
          <mxGeometry x="5" y="15" width="110" height="20" as="geometry" />
        </mxCell>
        <mxCell id="xjjVBxoUjtWX53dAkBdB-58" value="" style="swimlane;startSize=0;" vertex="1" parent="1">
          <mxGeometry x="1140" y="1470" width="130" height="50" as="geometry" />
        </mxCell>
        <mxCell id="xjjVBxoUjtWX53dAkBdB-59" value="&lt;span style=&quot;font-size: 16px&quot;&gt;提供API业务接口&lt;/span&gt;" style="text;html=1;align=center;verticalAlign=middle;resizable=0;points=[];autosize=1;strokeColor=none;" vertex="1" parent="xjjVBxoUjtWX53dAkBdB-58">
          <mxGeometry x="-10" y="15" width="140" height="20" as="geometry" />
        </mxCell>
        <mxCell id="xjjVBxoUjtWX53dAkBdB-66" value="" style="swimlane;startSize=0;" vertex="1" parent="1">
          <mxGeometry x="1032" y="1590" width="170" height="40" as="geometry" />
        </mxCell>
        <mxCell id="xjjVBxoUjtWX53dAkBdB-67" value="&lt;font style=&quot;font-size: 14px&quot;&gt;客户端消息接收/推送&lt;/font&gt;" style="text;html=1;align=center;verticalAlign=middle;resizable=0;points=[];autosize=1;strokeColor=none;" vertex="1" parent="xjjVBxoUjtWX53dAkBdB-66">
          <mxGeometry x="5" y="10" width="150" height="20" as="geometry" />
        </mxCell>
        <mxCell id="xjjVBxoUjtWX53dAkBdB-68" value="" style="swimlane;startSize=0;" vertex="1" parent="1">
          <mxGeometry x="1032" y="1635" width="170" height="40" as="geometry" />
        </mxCell>
        <mxCell id="xjjVBxoUjtWX53dAkBdB-69" value="&lt;font style=&quot;font-size: 14px&quot;&gt;客户端消息消费状态维护&lt;/font&gt;" style="text;html=1;align=center;verticalAlign=middle;resizable=0;points=[];autosize=1;strokeColor=none;" vertex="1" parent="xjjVBxoUjtWX53dAkBdB-68">
          <mxGeometry x="-5" y="10" width="170" height="20" as="geometry" />
        </mxCell>
        <mxCell id="xjjVBxoUjtWX53dAkBdB-70" value="" style="swimlane;startSize=0;" vertex="1" parent="1">
          <mxGeometry x="1031" y="1678" width="170" height="40" as="geometry" />
        </mxCell>
        <mxCell id="xjjVBxoUjtWX53dAkBdB-71" value="&lt;span style=&quot;font-size: 14px&quot;&gt;客户端消息待消费队列&lt;/span&gt;" style="text;html=1;align=center;verticalAlign=middle;resizable=0;points=[];autosize=1;strokeColor=none;" vertex="1" parent="xjjVBxoUjtWX53dAkBdB-70">
          <mxGeometry y="10" width="160" height="20" as="geometry" />
        </mxCell>
        <mxCell id="xjjVBxoUjtWX53dAkBdB-139" value="登录" style="rounded=1;whiteSpace=wrap;html=1;fillColor=#d5e8d4;strokeColor=#82b366;" vertex="1" parent="1">
          <mxGeometry x="930" y="120" width="98" height="40" as="geometry" />
        </mxCell>
      </root>
    </mxGraphModel>
  </diagram>
</mxfile>
